<?xml version="1.0" encoding="UTF-8"?><svg id="Layer_1" xmlns="http://www.w3.org/2000/svg" viewBox="0 0 1471 646.4"><defs><style>.cls-1{fill:#444344;}.cls-2{fill:#3a3a3a;}</style></defs><rect class="cls-1" x="114.46" y="5.49" width="1234.54" height="17.27"/><path class="cls-2" d="M114.59,635.26c0,6.15-4.99,11.14-11.14,11.14s-11.14-4.99-11.14-11.14,4.99-11.14,11.14-11.14,11.14,4.99,11.14,11.14Z"/><rect class="cls-1" x="95.86" y="526.03" width="15.19" height="110.98"/><rect class="cls-1" x="95.86" y="5.82" width="15.19" height="520.22"/><rect class="cls-2" x="92.35" y="391.69" width="22.2" height="22.2" rx=".44" ry=".44"/><rect class="cls-2" x="92.35" y="278.37" width="22.2" height="22.2" rx=".44" ry=".44"/><rect class="cls-2" x="92.35" y="165.06" width="22.2" height="22.2" rx=".44" ry=".44"/><rect class="cls-1" x="47.28" y="531.36" width="11.68" height="123.83" transform="translate(435.1 136.22) rotate(45)"/><path class="cls-2" d="M15.95,643.67c-3.65,3.65-9.57,3.65-13.22,0-3.65-3.65-3.65-9.57,0-13.22,3.65-3.65,9.57-3.65,13.22,0,3.65,3.65,3.65,9.57,0,13.22Z"/><rect class="cls-1" x="147.93" y="531.36" width="11.68" height="123.83" transform="translate(682.03 904.03) rotate(135)"/><path class="cls-2" d="M190.94,643.67c3.65,3.65,9.57,3.65,13.22,0,3.65-3.65,3.65-9.57,0-13.22-3.65-3.65-9.57-3.65-13.22,0-3.65,3.65-3.65,9.57,0,13.22Z"/><rect class="cls-2" x="87.73" y="541.61" width="31.43" height="16.17" rx=".67" ry=".67"/><path class="cls-2" d="M122.29,0h-30.14c-4.14,0-7.54,3.39-7.54,7.54v13.19c0,4.14,3.39,7.54,7.54,7.54h30.14V0Z"/><path class="cls-2" d="M1378.69,635.26c0,6.15-4.99,11.14-11.14,11.14s-11.14-4.99-11.14-11.14,4.99-11.14,11.14-11.14,11.14,4.99,11.14,11.14Z"/><rect class="cls-1" x="1359.96" y="526.03" width="15.19" height="110.98"/><rect class="cls-1" x="1359.96" y="5.82" width="15.19" height="520.22"/><rect class="cls-2" x="1356.45" y="391.69" width="22.2" height="22.2" rx=".44" ry=".44"/><rect class="cls-2" x="1356.45" y="278.37" width="22.2" height="22.2" rx=".44" ry=".44"/><rect class="cls-2" x="1356.45" y="165.06" width="22.2" height="22.2" rx=".44" ry=".44"/><rect class="cls-1" x="1311.39" y="531.36" width="11.68" height="123.83" transform="translate(805.24 -757.63) rotate(45)"/><path class="cls-2" d="M1280.06,643.67c-3.65,3.65-9.57,3.65-13.22,0-3.65-3.65-3.65-9.57,0-13.22,3.65-3.65,9.57-3.65,13.22,0,3.65,3.65,3.65,9.57,0,13.22Z"/><rect class="cls-1" x="1412.03" y="531.36" width="11.68" height="123.83" transform="translate(2839.94 10.12) rotate(135)"/><path class="cls-2" d="M1455.05,643.67c3.65,3.65,9.57,3.65,13.22,0,3.65-3.65,3.65-9.57,0-13.22-3.65-3.65-9.57-3.65-13.22,0-3.65,3.65-3.65,9.57,0,13.22Z"/><rect class="cls-2" x="1351.84" y="541.61" width="31.43" height="16.17" rx=".67" ry=".67"/><path class="cls-2" d="M1348.71,28.26h30.14c4.14,0,7.54-3.39,7.54-7.54V7.54c0-4.14-3.39-7.54-7.54-7.54h-30.14v28.26Z"/></svg>