<?xml version="1.0" encoding="UTF-8"?><svg id="Layer_1" xmlns="http://www.w3.org/2000/svg" viewBox="0 0 127.35 35.37"><defs><style>.cls-1{fill:#fff;}.cls-2{fill:#262626;}.cls-3{fill:#00a99d;}</style></defs><path class="cls-2" d="M14.49,23.24v10.43c0,.34.08.6.24.79.16.19.43.33.81.44v.46h-6.11v-.46c.38-.1.65-.24.81-.43.16-.19.24-.45.24-.79v-15.05c0-.34-.08-.6-.23-.77-.15-.18-.43-.32-.82-.44v-.46h7.07v.46c-.48.12-.72.33-.72.64,0,.26.18.57.53.92l9.87,9.79v-10.14c0-.34-.08-.6-.23-.78-.15-.18-.43-.33-.82-.44v-.46h6.11v.46c-.39.11-.67.25-.82.43-.15.18-.23.44-.23.78v15.03c0,.34.08.6.23.78.15.18.43.33.82.45v.46h-6.59v-.46c.48-.1.72-.3.72-.6,0-.15-.07-.31-.2-.47-.13-.16-.43-.48-.9-.96l-9.77-9.63Z"/><path class="cls-2" d="M30.09,23.24v10.43c0,.34.08.6.24.79.16.19.43.33.81.44v.46h-6.11v-.46c.38-.1.65-.24.81-.43.16-.19.24-.45.24-.79v-15.05c0-.34-.08-.6-.23-.77-.15-.18-.43-.32-.82-.44v-.46h7.07v.46c-.48.12-.72.33-.72.64,0,.26.18.57.53.92l9.87,9.79v-10.14c0-.34-.08-.6-.23-.78-.15-.18-.43-.33-.82-.44v-.46h6.11v.46c-.39.11-.67.25-.82.43-.15.18-.23.44-.23.78v15.03c0,.34.08.6.23.78.15.18.43.33.82.45v.46h-6.59v-.46c.48-.1.72-.3.72-.6,0-.15-.07-.31-.2-.47-.13-.16-.43-.48-.9-.96l-9.77-9.63Z"/><path class="cls-2" d="M1.05,33.46V14.47c0-.33-.08-.58-.23-.76-.15-.18-.43-.32-.82-.43v-.53h7v.53c-.39.1-.67.24-.82.42-.15.18-.23.44-.23.76v18.99c0,.34.08.6.24.78.16.18.43.32.81.42v.53H0v-.53c.39-.11.67-.25.82-.43.15-.18.23-.43.23-.77Z"/><path class="cls-3" d="M58.6,27.37l.19,6.14c.01.41-.3.76-.71.78l-10,.57c-.43.02-.8-.32-.8-.75l-.38-30.32c-.02-1.63,1.27-2.98,2.91-3.03l12.03-.34c5.9-.19,8.69,1.28,8.69,11.95,0,9.93-3.44,13.1-11.28,14.22-.38.05-.66.39-.65.77ZM57.71,10.1l.12,7.26c.04,2.58,3.89,2.62,3.97.04.04-1.13.05-2.36.05-3.7,0-1.59-.06-2.87-.19-3.89-.31-2.49-4-2.22-3.96.29Z"/><path class="cls-3" d="M79.65,34.91c-6.52,0-9.12-2.17-9.12-11.81,0-12.14,2.31-14.45,11.15-14.45,6.19,0,8.17,3.4,8.46,10.58l.14,4.68-10.25,2.41c.47.71,1.28.94,2.69.94,1.89,0,4.44-.43,6.94-1.32l.66,7.04c-3.31,1.46-6.42,1.94-10.68,1.94ZM80.45,16.11c-.8,0-.94.66-.94,3.87l1.94-.57c-.14-2.65-.24-3.31-.99-3.31Z"/><path class="cls-3" d="M99.67,35.19c-5.53,0-6.94-1.98-6.99-8.83l-.09-8.12-2.08-.24v-7.61l2.41-.14-.19-8.41,10.49-1.84.24,9.35,4.44-.52.24,8.74-4.49.24.09,4.82c.05,2.65.43,3.31,1.61,3.31.99,0,1.65-.19,2.69-.66l.24,8.17c-2.46,1.18-4.87,1.75-8.6,1.75Z"/><path class="cls-3" d="M126.22,18.66c-2.27-.99-4.91-1.65-7.23-1.65-1.23,0-1.51.14-1.51.47s.28.38,2.31.85c6,1.37,7.13,2.74,7.13,8.5,0,6.42-2.17,8.12-9.16,8.12-2.98,0-6.85-.61-9.07-1.79l.43-7.32c2.41,1.04,5.95,1.94,8.46,1.94.47,0,.66-.19.66-.47,0-.43-.28-.52-1.37-.8-6.47-1.51-7.94-3.4-7.94-9.49,0-6.57,1.98-8.36,9.54-8.36,4.11,0,6.52.57,8.88,1.51l-1.13,8.5Z"/><path class="cls-2" d="M51.92,7.25s0-.03.01-.04c.03-.13.05-.26.07-.4,0,0,0-.04,0-.07,0,0,0,0,0-.01,0,0,0-.02,0-.03,0-.07,0-.14,0-.2,0-.14,0-.27,0-.41,0-.07-.01-.14-.02-.2,0-.04,0-.08-.01-.12,0,0,0,.02,0,.02,0-.01,0-.03,0-.04-.04-.27-.11-.54-.19-.8-.04-.12-.08-.24-.13-.36-.02-.05-.04-.11-.07-.16,0-.02-.02-.04-.02-.05,0-.01-.02-.04-.02-.05-.11-.22-.23-.43-.36-.63-.13-.19-.28-.38-.44-.55-.04-.05-.09-.09-.14-.14-.02-.02-.04-.04-.06-.06,0,0,0,0,0,0,0,0,0,0-.01,0-.08-.07-.17-.15-.26-.21-.36-.28-.76-.5-1.19-.66-.06-.02-.12-.04-.18-.06,0,0,0,0-.01,0,0,0,0,0-.01,0-.03,0-.05-.02-.08-.02-.11-.03-.21-.06-.32-.08-.23-.04-.46-.07-.69-.08-.12,0-.24,0-.36,0,0,0-.05,0-.06,0-.02,0-.03,0-.05,0-.06,0-.11.01-.16.02-.21.04-.42.09-.62.16-.06.02-.11.04-.17.06,0,0-.06.03-.07.03,0,0,0,0,0,0-.09.04-.19.09-.28.13-.1.05-.2.11-.29.17-.04.03-.09.06-.13.08,0,0,0,0,0,0-.02.02-.04.03-.06.05-.17.13-.34.27-.49.42,0,0,0,0,0,0-.02.02-.04.04-.05.06-.04.04-.07.08-.1.12-.07.08-.13.17-.2.25,0,0,0,0,0,0-.01.02-.03.04-.04.06-.03.05-.06.09-.09.14-.05.09-.1.18-.15.28,0,0,0,0,0,.02-.01.03-.02.05-.03.08-.02.05-.04.1-.06.16-.04.11-.08.21-.11.32-.05.17-.2.35-.37.42-.14.06-.28.01-.32-.14-.03-.11-.07-.22-.11-.32-.02-.04-.03-.09-.05-.13-.01-.03-.02-.05-.03-.08,0,0-.02-.04-.02-.05-.18-.37-.41-.71-.68-1.01-.07-.08-.15-.16-.23-.24,0,0,0,0,0,0-.02-.01-.03-.03-.05-.04-.04-.03-.08-.07-.12-.1-.15-.13-.32-.24-.49-.35-.17-.1-.35-.2-.54-.28-.1-.04-.2-.08-.3-.11-.02,0-.03-.01-.05-.02,0,0,0,0-.01,0,0,0,0,0,0,0-.05-.01-.1-.03-.15-.04-.4-.11-.82-.15-1.23-.12-.01,0-.08,0-.08,0,0,0,0,0,0,0-.02,0-.04,0-.06,0-.05,0-.11.01-.16.02-.1.02-.2.04-.3.06-.21.05-.41.11-.6.19-.01,0-.03.01-.04.02-.03.01-.05.02-.08.03-.04.02-.08.04-.13.06-.09.05-.18.09-.27.14-.1.06-.19.11-.28.18t0,0s0,0-.01,0c0,0-.02.01-.02.02-.01,0-.02.01-.03.02-.04.03-.09.07-.13.1-.09.07-.17.14-.25.22-.03.03-.06.06-.1.09,0,0,0,0,0,0,0,0,0,0,0,.01,0,0,0,0,0,0,0,0,0,.01-.02.02-.01.01-.02.02-.03.03-.08.08-.15.17-.22.25-.03.04-.07.09-.1.13l-.02.03c-.12.19-.24.39-.34.59,0,0,0,0,0,0,0,0,0,0,0,0,0,0,0,0,0,0,0,0,0,.02-.01.02,0,.01-.01.02-.02.04-.02.05-.05.11-.07.16-.04.1-.08.2-.11.3-.02.06-.04.11-.05.17,0,0,0,0,0-.01,0,0,0,0,0,.01,0,0,0,0,0,0,0,0,0,.01,0,.02,0,.01,0,.03-.01.04-.03.1-.05.21-.07.32-.02.12-.04.23-.06.35,0,.03,0,.06-.01.09,0,.02,0,.04,0,.06,0-.02,0-.04,0-.06-.02.02,0,.15-.01.18,0,.22,0,.45.02.67,0,.03,0,.05,0,.08,0,0,0,.01,0,.02,0,.06.02.11.03.17.02.1.04.21.07.31.03.11.07.22.11.33.02.05.04.11.07.16,0,0,.02.04.02.05,0,.01.01.03.02.04.09.18.18.35.28.52.2.33.43.65.68.95.25.29.52.57.8.83,0,0,.02.02.03.03.02.02.04.03.06.05.03.03.06.06.09.08.07.06.14.12.21.18.15.13.31.26.47.38.62.49,1.28.94,1.92,1.4,1.24.89,2.47,1.85,3.38,3.08.44-.57.93-1.09,1.47-1.56.18-.16.36-.31.54-.45.04.02.08.05.12.07.08.04.46.24.54.27"/><path class="cls-1" d="M46.46,8.62c-.18.62.08,1.09.53,1.22.45.13.81-.17.98-.79.18-.62.1-1.33-.35-1.46-.45-.13-.99.41-1.17,1.03Z"/><path class="cls-1" d="M50.27,11.26c.01-.2,0-.39-.06-.57-.11-.33-.33-.61-.67-.8-.52-.28-1.1-.2-1.55.16-.25.19-.56.29-.87.25-.19-.02-.39,0-.57.05-.34.1-.64.34-.82.68-.36.68-.1,1.53.58,1.89.4.22.7.16.97.13.19-.02.36-.02.55.08.47.25.35.78,1.03,1.14.68.36,1.53.1,1.89-.58.28-.52.19-1.15-.18-1.57-.21-.24-.31-.55-.29-.87Z"/><path class="cls-1" d="M50,6.83c-.45-.24-1.16.21-1.49.83-.33.62-.16,1.19.29,1.43.45.24.9,0,1.23-.62.33-.62.42-1.4-.04-1.64Z"/><path class="cls-1" d="M52.51,10.18c-.36-.3-.99.04-1.4.53-.41.49-.46.96-.1,1.26.36.3.89.25,1.31-.24.41-.49.55-1.24.19-1.54Z"/><path class="cls-1" d="M50.61,10.05c.45.24,1.02.06,1.35-.56.33-.62.3-1.46-.15-1.7-.45-.24-1.05.27-1.38.89-.33.62-.27,1.13.18,1.37Z"/><path class="cls-3" d="M45.98,13.07c-.18.15-.36.3-.54.45-.54.48-1.03,1-1.47,1.56-.91-1.24-2.13-2.2-3.38-3.08-.64-.46-1.3-.91-1.92-1.4-.16-.12-.32-.25-.47-.38-.07-.06-.14-.12-.21-.18-.03-.03-.06-.05-.09-.08-.02-.02-.04-.03-.06-.05-.01,0-.02-.02-.03-.03-.28-.26-.55-.54-.8-.83-.25-.3-.48-.61-.68-.95-.1-.17-.2-.34-.28-.52,0-.01-.01-.03-.02-.04,0,0-.02-.04-.02-.05-.02-.05-.04-.11-.07-.16-.04-.11-.08-.22-.11-.33-.03-.1-.05-.21-.07-.31-.01-.06-.02-.11-.03-.17,0,0,0-.01,0-.02,0-.03,0-.05,0-.08-.02-.22-.03-.45-.02-.67,0-.03,0-.16.01-.18,0,.02,0,.04,0,.06,0-.02,0-.04,0-.06,0-.03,0-.06.01-.09.01-.12.03-.23.06-.35.02-.11.04-.21.07-.32,0-.01,0-.03.01-.04,0,0,0-.02,0-.02,0,0,0,0,0,0,0,0,0,0,0-.01,0,0,0,0,0,.01.02-.06.04-.11.05-.17.03-.1.07-.2.11-.3.02-.05.05-.11.07-.16,0-.01.01-.02.02-.04,0,0,0-.02.01-.02,0,0,0,0,0,0,0,0,0,0,0,0,0,0,0,0,0,0,.1-.2.22-.4.34-.59l.02-.03s.07-.09.1-.13c.07-.09.14-.17.22-.25,0-.01.02-.02.03-.03,0,0,.01-.01.02-.02,0,0,0,0,0,0,0,0,0,0,0-.01,0,0,0,0,0,0,.03-.03.06-.06.1-.09.08-.08.17-.15.25-.22.04-.03.09-.07.13-.1,0,0,.02-.01.03-.02,0,0,.01-.01.02-.02,0,0,0,0,.01,0t0,0c.09-.06.19-.12.28-.18.09-.05.18-.1.27-.14.04-.02.08-.04.13-.06.03-.01.05-.02.08-.03.01,0,.03-.01.04-.02.2-.08.4-.14.6-.19.1-.02.2-.04.3-.06.05,0,.11-.02.16-.02.02,0,.04,0,.06,0,0,0,0,0,.01,0,0,0,0,0-.01,0,0,0,0,0,0,0,0,0,.07,0,.08,0,.42-.03.83.01,1.23.12.05.01.1.03.15.04,0,0,0,0,0,0,0,0,0,0,.01,0,.02,0,.03.01.05.02.1.03.2.07.3.11.19.08.37.17.54.28.17.1.33.22.49.35.04.03.08.07.12.1.02.01.03.03.05.04,0,0,0,0,0,0,.08.08.16.15.23.24.28.3.5.65.68,1.01,0,.01.02.04.02.05.01.03.02.05.03.08.02.04.04.09.05.13.04.11.08.21.11.32.04.15.18.19.32.14.16-.07.32-.25.37-.42.03-.11.07-.22.11-.32.02-.05.04-.1.06-.16.01-.03.02-.05.03-.08,0,0,0-.01,0-.02.05-.09.1-.19.15-.28.03-.05.06-.09.09-.14.01-.02.03-.04.04-.06,0,0,0,0,0,0,.06-.09.13-.17.2-.25.03-.04.07-.08.1-.12.02-.02.04-.04.05-.06,0,0,0,0,0,0,.15-.15.32-.29.49-.42.02-.02.04-.03.06-.05,0,0,0,0,0,0,.04-.03.09-.06.13-.08.1-.06.19-.12.29-.17.09-.05.18-.09.28-.13,0,0,0,0,0,0,.01,0,.06-.03.07-.03.06-.02.11-.04.17-.06.2-.07.41-.12.62-.16.05,0,.11-.02.16-.02.02,0,.03,0,.05,0,0,0,.05,0,.06,0,.12,0,.24-.01.36,0,.23,0,.46.03.69.08.11.02.22.05.32.08.03,0,.05.02.08.02,0,0,0,0,.01,0,0,0,0,0,.01,0,.06.02.12.04.18.06.43.16.83.38,1.19.66.09.07.17.14.26.21,0,0,0,0,.01,0,0,0,0,0,0,0,.02.02.04.04.06.06.05.05.09.09.14.14.16.17.3.35.44.55.14.2.26.41.36.63,0,0,.02.04.02.05,0,.02.02.04.02.05.02.05.05.11.07.16.05.12.09.24.13.36.08.26.15.53.19.8,0,0,0,.02,0,.04,0,0,0-.01,0-.02,0,.04,0,.08.01.12,0,.07.01.14.02.2,0,.14.01.27,0,.41,0,.07,0,.14,0,.2,0,0,0,.02,0,.03,0,0,0,.01,0,.01,0,.03,0,.07,0,.07-.02.13-.04.27-.07.4,0,.01,0,.03-.01.04.03.01.05.02.08.04.19.1.34.26.44.47.39-.96.42-2.04.18-3.04-.24-1.02-.77-1.97-1.55-2.67-.73-.66-1.67-1.09-2.65-1.18-.96-.09-1.95.18-2.76.7-.71.46-1.29,1.08-1.7,1.81-.29-.59-.7-1.11-1.21-1.54-.65-.54-1.48-.89-2.32-.98-.93-.09-1.88.15-2.69.61-.87.5-1.58,1.25-2.05,2.14-.48.91-.76,1.95-.71,2.98.02.48.11.96.29,1.41.16.41.38.8.62,1.17.91,1.37,2.26,2.35,3.58,3.29.67.48,1.35.95,1.99,1.47.16.13.32.27.48.4.03.03.06.06.1.09.01.01.02.02.03.03,0,0,.03.03.04.04.08.08.16.16.25.23.3.29.58.6.84.93.13.17.25.34.37.51.07.1.19.09.28.06.14-.06.23-.17.31-.29.01-.02.02-.04.04-.05.02-.03.05-.07.07-.1.06-.08.12-.16.18-.24.12-.15.24-.3.37-.45.06-.07.12-.13.18-.19.03-.03.06-.06.09-.09,0,0,0,0-.01.01,0,0,.01-.01.02-.02,0,0,.01-.01.02-.02,0,0,.02-.02.02-.02,0,0,0-.01.01-.02.13-.13.27-.26.41-.39.4-.36.82-.7,1.24-1.02-.23-.02-.44-.09-.66-.2-.04-.02-.08-.04-.12-.07ZM52.01,6.72s0-.01,0-.02c0,0,0,.01,0,.02Z"/></svg>