<?xml version="1.0" encoding="UTF-8"?>
<svg version="1.1" xmlns="http://www.w3.org/2000/svg" width="256" height="256">
<path d="M0 0 C6.21558415 1.55389604 11.12296916 6.25698537 14.66796875 11.4375 C15.16941406 12.283125 15.67085938 13.12875 16.1875 14 C16.69667969 14.845625 17.20585937 15.69125 17.73046875 16.5625 C18.87486582 18.75974237 19.44238202 20.61171166 20 23 C20.474375 23.45375 20.94875 23.9075 21.4375 24.375 C23.60490839 26.62910472 24.11752486 29.0374049 25 32 C25.86076312 34.03943262 25.86076312 34.03943262 27.4375 35.25 C29.5335768 37.59760601 30.10960702 40.01082356 31 43 C31.8652255 45.01317224 31.8652255 45.01317224 33.3125 46.25 C36.01329853 49.0508281 38.64123567 52.18311472 39.40682983 56.06030273 C39.9063934 58.45327694 39.9063934 58.45327694 43.36572266 60.09765625 C48.44823157 62.4095159 53.68426152 63.42279448 59.1484375 64.4375 C60.20100739 64.64431396 61.25357727 64.85112793 62.33804321 65.06420898 C65.68165943 65.72052564 69.02787177 66.36185412 72.375 67 C75.7148406 67.63878317 79.05374982 68.28121568 82.39053345 68.93579102 C84.45901082 69.34147785 86.52923765 69.73838489 88.60140991 70.12475586 C94.31027898 71.24324194 99.48194932 72.79710051 104.82315063 75.11303711 C106.87091273 75.94740306 108.84451719 76.52203429 111 77 C110.65034965 86.16083916 110.65034965 86.16083916 108.0625 89.5 C107.381875 89.995 106.70125 90.49 106 91 C103.93470336 92.81287474 103.93470336 92.81287474 103.1875 94.9375 C101.62669713 97.64836814 99.67335905 98.4351069 97 100 C95.30247805 101.94900668 94.15944612 103.60751723 93.1875 106 C91.78198258 108.36718723 90.09376673 109.30276737 87.79296875 110.734375 C82.88906766 114.19595224 78.36826722 118.07502636 77 124 C75.33333333 125 73.66666667 126 72 127 C71.3574765 129.06874034 71.3574765 129.06874034 71 131 C70.01 131.33 69.02 131.66 68 132 C68 133.98 68 135.96 68 138 C67.34 138 66.68 138 66 138 C65.8665822 144.63194244 66.2036397 151.0272062 67.05859375 157.6015625 C67.22150658 158.92176895 67.22150658 158.92176895 67.38771057 160.26864624 C67.73191341 163.05484766 68.08385847 165.83998205 68.4375 168.625 C70.01335736 181.08052395 71.41268399 193.45350363 72 206 C68.1994064 208.03515657 65.27128871 208.72768008 61 208 C50.65690318 204.60566237 40.88449972 199.76944991 31.08398438 195.08398438 C24.4730981 191.93047683 17.84292023 188.83879664 11.0625 186.0625 C10.08410156 185.66160156 9.10570312 185.26070312 8.09765625 184.84765625 C1.34503856 182.99984031 -3.62319649 183.82999594 -9.9765625 186.51953125 C-10.61413483 186.78683548 -11.25170715 187.05413971 -11.90859985 187.32954407 C-20.21375937 190.85860842 -28.33982158 194.79069863 -36.47314453 198.69458008 C-57.61568768 208.8219914 -57.61568768 208.8219914 -66 208 C-67.35244937 207.3730208 -68.69076825 206.71283551 -70 206 C-68.94050063 190.37669117 -67.36362093 174.86948634 -65.32128906 159.34790039 C-64.39695383 152.20059463 -63.71010861 145.21400096 -64 138 C-64.66 138 -65.32 138 -66 138 C-66 136.02 -66 134.04 -66 132 C-66.9590625 131.62875 -66.9590625 131.62875 -67.9375 131.25 C-70.544301 129.67012061 -70.29195078 128.83219689 -71 126 C-71.9590625 125.5359375 -71.9590625 125.5359375 -72.9375 125.0625 C-75 124 -75 124 -75.85546875 121.7265625 C-77.20583169 118.50965694 -78.88904217 116.74477436 -81.375 114.3125 C-82.14585938 113.54550781 -82.91671875 112.77851563 -83.7109375 111.98828125 C-85.77581853 110.19472418 -87.55742263 109.15928065 -90 108 C-90.70394612 106.68596724 -91.36345658 105.3479743 -92 104 C-95.03935852 99.8255681 -95.03935852 99.8255681 -99.1875 96.9375 C-101.79398793 95.58931659 -101.97682122 93.66026482 -103 91 C-103.99 90.67 -104.98 90.34 -106 90 C-108.2486345 85.87750342 -108.53237735 81.59828934 -109 77 C-94.25598325 70.98203398 -78.44999219 68.39267374 -62.86938477 65.5 C-60.24545271 65.01044795 -57.62467416 64.50617932 -55.00390625 64 C-54.21730118 63.85820313 -53.43069611 63.71640625 -52.62025452 63.5703125 C-47.41078351 62.55203982 -42.38425233 61.09966219 -38 58 C-36.1623762 54.65666426 -36.1623762 54.65666426 -35 51 C-33.79991386 48.83225546 -32.50231673 46.98693502 -31 45 C-30.34 45 -29.68 45 -29 45 C-28.896875 44.113125 -28.79375 43.22625 -28.6875 42.3125 C-27.98284093 38.9173245 -27.0445434 36.78057902 -25 34 C-24.34 34 -23.68 34 -23 34 C-22.9175 33.113125 -22.835 32.22625 -22.75 31.3125 C-21.89797373 27.54938397 -20.45199047 25.91173868 -18 23 C-17.65350921 21.67002518 -17.32088998 20.33638262 -17 19 C-15.61491643 16.56697288 -14.20112085 14.22413955 -12.6875 11.875 C-12.29626953 11.24207031 -11.90503906 10.60914063 -11.50195312 9.95703125 C-9.35799089 6.60775692 -7.76876247 4.40120656 -4 3 C-3.0409375 2.13375 -3.0409375 2.13375 -2.0625 1.25 C-1.381875 0.8375 -0.70125 0.425 0 0 Z M-69 203 C-68 205 -68 205 -68 205 Z M70 203 C71 205 71 205 71 205 Z " fill="#A1498D" transform="translate(127,24)"/>
<path d="M0 0 C3.60037097 0.90009274 6.1234398 2.71859019 9 5 C9.99 5.495 9.99 5.495 11 6 C10.67 6.66 10.34 7.32 10 8 C9.01 8 8.02 8 7 8 C6.5875 7.484375 6.175 6.96875 5.75 6.4375 C3.95522809 4.69072387 3.95522809 4.69072387 0.75 4.6875 C-7.77643084 7.67175079 -12.29799319 19.74178505 -16.5 27.3125 C-17.06605957 28.32070801 -17.63211914 29.32891602 -18.21533203 30.36767578 C-21.1806367 35.66499355 -24.06658069 40.99325531 -26.875 46.375 C-32.57199596 56.88186847 -37.3228379 62.47277166 -49 66 C-55.92989071 67.74256036 -62.97350696 68.96955686 -70 70.25 C-72.80320004 70.77430491 -75.60570109 71.30224007 -78.40820312 71.83026123 C-80.13940206 72.15498046 -81.87115279 72.47677555 -83.60351562 72.79522705 C-84.77624023 73.01115509 -84.77624023 73.01115509 -85.97265625 73.23144531 C-86.65593994 73.35626282 -87.33922363 73.48108032 -88.04321289 73.60968018 C-88.68895264 73.73848572 -89.33469238 73.86729126 -90 74 C-91.08365845 74.20940216 -91.08365845 74.20940216 -92.18920898 74.42303467 C-93.08555054 74.70863251 -93.08555054 74.70863251 -94 75 C-94.495 75.99 -94.495 75.99 -95 77 C-93.68 77.33 -92.36 77.66 -91 78 C-91 78.99 -91 79.98 -91 81 C-92.299375 80.5359375 -92.299375 80.5359375 -93.625 80.0625 C-96.76150738 79.07508101 -99.75067413 78.46418941 -103 78 C-103 80.64 -103 83.28 -103 86 C-102.401875 86.020625 -101.80375 86.04125 -101.1875 86.0625 C-99 87 -99 87 -97.375 90.4375 C-96.694375 92.2009375 -96.694375 92.2009375 -96 94 C-95.34 94.66 -94.68 95.32 -94 96 C-94.375 98.125 -94.375 98.125 -95 100 C-99.42520109 97.40259936 -101.30891428 95.81309013 -103 91 C-103.99 90.67 -104.98 90.34 -106 90 C-108.2486345 85.87750342 -108.53237735 81.59828934 -109 77 C-94.25598325 70.98203398 -78.44999219 68.39267374 -62.86938477 65.5 C-60.24545271 65.01044795 -57.62467416 64.50617932 -55.00390625 64 C-54.21730118 63.85820313 -53.43069611 63.71640625 -52.62025452 63.5703125 C-47.41078351 62.55203982 -42.38425233 61.09966219 -38 58 C-36.1623762 54.65666426 -36.1623762 54.65666426 -35 51 C-33.79991386 48.83225546 -32.50231673 46.98693502 -31 45 C-30.34 45 -29.68 45 -29 45 C-28.896875 44.113125 -28.79375 43.22625 -28.6875 42.3125 C-27.98284093 38.9173245 -27.0445434 36.78057902 -25 34 C-24.34 34 -23.68 34 -23 34 C-22.9175 33.113125 -22.835 32.22625 -22.75 31.3125 C-21.89797373 27.54938397 -20.45199047 25.91173868 -18 23 C-17.65350921 21.67002518 -17.32088998 20.33638262 -17 19 C-15.61491643 16.56697288 -14.20112085 14.22413955 -12.6875 11.875 C-12.29626953 11.24207031 -11.90503906 10.60914063 -11.50195312 9.95703125 C-9.35799089 6.60775692 -7.76876247 4.40120656 -4 3 C-3.0409375 2.13375 -3.0409375 2.13375 -2.0625 1.25 C-1.381875 0.8375 -0.70125 0.425 0 0 Z " fill="#EAB26E" transform="translate(127,24)"/>
<path d="M0 0 C5.74591884 3.00295303 11.59981483 5.65282153 17.56079102 8.20068359 C18.42430176 8.57330322 19.2878125 8.94592285 20.17749023 9.32983398 C27.84829869 12.59062922 35.29741094 15.50245167 43.62329102 16.38818359 C43.62329102 17.04818359 43.62329102 17.70818359 43.62329102 18.38818359 C44.61329102 18.71818359 45.60329102 19.04818359 46.62329102 19.38818359 C46.95329102 18.72818359 47.28329102 18.06818359 47.62329102 17.38818359 C48.94329102 17.38818359 50.26329102 17.38818359 51.62329102 17.38818359 C51.31079102 19.32568359 51.31079102 19.32568359 50.62329102 21.38818359 C37.56455266 25.74109638 22.36394325 15.04502956 10.70727539 9.47216797 C4.09638912 6.31866042 -2.53378875 3.22698023 -9.31420898 0.45068359 C-10.29260742 0.04978516 -11.27100586 -0.35111328 -12.27905273 -0.76416016 C-19.03167043 -2.6119761 -23.99990547 -1.78182047 -30.35327148 0.90771484 C-30.99084381 1.17501907 -31.62841614 1.4423233 -32.28530884 1.71772766 C-40.59046835 5.24679201 -48.71653056 9.17888222 -56.84985352 13.08276367 C-77.46401887 22.95707871 -77.46401887 22.95707871 -86.37670898 22.38818359 C-86.37670898 21.06818359 -86.37670898 19.74818359 -86.37670898 18.38818359 C-83.0093675 17.07409911 -80.58151278 16.38073618 -76.93920898 16.51318359 C-73.21719498 16.38258661 -71.42271307 15.50213114 -68.32592773 13.53271484 C-65.36266385 11.7927623 -62.20385753 10.64266651 -59.00170898 9.41552734 C-53.84240152 7.39633409 -48.85034204 5.15394509 -43.87280273 2.72412109 C-42.88473633 2.24201172 -41.89666992 1.75990234 -40.87866211 1.26318359 C-38.82945164 0.26012838 -36.7825799 -0.74771843 -34.73803711 -1.76025391 C-33.75125977 -2.23978516 -32.76448242 -2.71931641 -31.74780273 -3.21337891 C-30.86020264 -3.6498877 -29.97260254 -4.08639648 -29.05810547 -4.53613281 C-18.53106854 -8.75921619 -9.48030266 -4.96967201 0 0 Z " fill="#230860" transform="translate(147.376708984375,209.61181640625)"/>
<path d="M0 0 C1.48206495 0.254496 2.96068615 0.52911762 4.4375 0.8125 C5.26121094 0.96332031 6.08492188 1.11414063 6.93359375 1.26953125 C7.95646484 1.63111328 7.95646484 1.63111328 9 2 C10.27596315 5.82788944 9.62344752 7.36656983 8 11 C6 12.1875 6 12.1875 4 13 C3.34 13.99 2.68 14.98 2 16 C1.505 14.515 1.505 14.515 1 13 C-4.21429501 13.53207092 -8.21926354 14.91386045 -13 17 C-14.546875 17.2475 -14.546875 17.2475 -16.125 17.5 C-19.03369443 17.82058343 -19.03369443 17.82058343 -21.30859375 19.4375 C-24.21029028 21.12208434 -26.66863512 21.7932184 -29.9375 22.5 C-34.36563641 23.53683194 -37.97598167 24.85385689 -42 27 C-46.21009218 28.56708987 -50.48638129 29.85686036 -54.8125 31.0625 C-57.4348654 31.83378394 -59.62731879 32.67129852 -62 34 C-62.33 33.34 -62.66 32.68 -63 32 C-61.25313328 28.50626656 -56.91137498 28.04190293 -53.375 26.85546875 C-52.48417725 26.55021774 -51.59335449 26.24496674 -50.67553711 25.9304657 C-47.78682204 24.94410768 -44.89420765 23.97011642 -42 23 C-41.05560059 22.68339417 -40.11120117 22.36678833 -39.13818359 22.04058838 C-36.28014315 21.08408656 -33.4213877 20.12974738 -30.5625 19.17578125 C-27.67896538 18.21171934 -24.79545927 17.24757325 -21.91210938 16.28295898 C-19.94330599 15.62685625 -17.97321274 14.97461341 -16.00195312 14.32592773 C-13.10168766 13.37015843 -10.20680296 12.39943343 -7.3125 11.42578125 C-6.43343994 11.14027908 -5.55437988 10.85477692 -4.64868164 10.56062317 C-0.19496765 9.04660115 2.97772498 7.8064638 6 4 C4.02 3.67 2.04 3.34 0 3 C0 2.01 0 1.02 0 0 Z " fill="#AD4AAF" transform="translate(228,98)"/>
<path d="M0 0 C3.60037097 0.90009274 6.1234398 2.71859019 9 5 C9.66 5.33 10.32 5.66 11 6 C10.67 6.66 10.34 7.32 10 8 C9.01 8 8.02 8 7 8 C6.5875 7.484375 6.175 6.96875 5.75 6.4375 C3.95522809 4.69072387 3.95522809 4.69072387 0.75 4.6875 C-7.77643084 7.67175079 -12.29799319 19.74178505 -16.5 27.3125 C-17.06605957 28.32070801 -17.63211914 29.32891602 -18.21533203 30.36767578 C-21.1806367 35.66499355 -24.06658069 40.99325531 -26.875 46.375 C-33.80284553 59.40142276 -33.80284553 59.40142276 -39 62 C-39.66 61.34 -40.32 60.68 -41 60 C-40.38125 59.443125 -39.7625 58.88625 -39.125 58.3125 C-36.88269089 55.87234008 -36.1667344 54.0626778 -35 51 C-33 47.6875 -33 47.6875 -31 45 C-30.34 45 -29.68 45 -29 45 C-28.896875 44.113125 -28.79375 43.22625 -28.6875 42.3125 C-27.98284093 38.9173245 -27.0445434 36.78057902 -25 34 C-24.34 34 -23.68 34 -23 34 C-22.9175 33.113125 -22.835 32.22625 -22.75 31.3125 C-21.89797373 27.54938397 -20.45199047 25.91173868 -18 23 C-17.65350921 21.67002518 -17.32088998 20.33638262 -17 19 C-15.61491643 16.56697288 -14.20112085 14.22413955 -12.6875 11.875 C-12.29626953 11.24207031 -11.90503906 10.60914063 -11.50195312 9.95703125 C-9.35799089 6.60775692 -7.76876247 4.40120656 -4 3 C-3.0409375 2.13375 -3.0409375 2.13375 -2.0625 1.25 C-1.381875 0.8375 -0.70125 0.425 0 0 Z " fill="#DB9F44" transform="translate(127,24)"/>
<path d="M0 0 C3.71379756 0.60291078 6.69680294 1.65923675 10.0625 3.328125 C11.49638062 4.03014038 11.49638062 4.03014038 12.95922852 4.74633789 C14.4644104 5.49065063 14.4644104 5.49065063 16 6.25 C24.21461318 10.2488894 32.35234851 14.02293965 41 17 C42.02222656 17.35707031 43.04445312 17.71414062 44.09765625 18.08203125 C47.38240271 19.12094837 50.58466611 19.59015993 54 20 C54 20.66 54 21.32 54 22 C54.99 22.33 55.98 22.66 57 23 C57.33 22.34 57.66 21.68 58 21 C59.32 21 60.64 21 62 21 C61.6875 22.9375 61.6875 22.9375 61 25 C52.51446269 27.82851244 45.82915109 24.38388869 38 21 C37.09975098 20.61392578 36.19950195 20.22785156 35.27197266 19.83007812 C32.25719675 18.52805165 29.25237336 17.20535824 26.25 15.875 C24.76584595 15.22748779 24.76584595 15.22748779 23.25170898 14.56689453 C21.86640991 13.94210205 21.86640991 13.94210205 20.453125 13.3046875 C19.61942383 12.93327637 18.78572266 12.56186523 17.92675781 12.17919922 C16 11 16 11 15 8 C12.27564363 6.92414941 12.27564363 6.92414941 9 6 C6.64353401 5.04798774 4.32671974 4.02375668 2 3 C2 2.34 2 1.68 2 1 C1.34 0.67 0.68 0.34 0 0 Z " fill="#0E0470" transform="translate(137,206)"/>
<path d="M0 0 C-0.75 2.375 -0.75 2.375 -2 5 C-3.32520503 5.68268138 -4.65812182 6.3507041 -6 7 C-6.185625 7.928125 -6.185625 7.928125 -6.375 8.875 C-7.36451789 12.23936082 -10.13152036 13.16417303 -13 15 C-14.71924993 16.96485707 -15.83237546 18.58738574 -16.8125 21 C-18.21801742 23.36718723 -19.90623327 24.30276737 -22.20703125 25.734375 C-27.11093234 29.19595224 -31.63173278 33.07502636 -33 39 C-35.5 40.5 -35.5 40.5 -38 42 C-38.6425235 44.06874034 -38.6425235 44.06874034 -39 46 C-40.485 46.495 -40.485 46.495 -42 47 C-42 48.98 -42 50.96 -42 53 C-42.99 53 -43.98 53 -45 53 C-45.33 51.68 -45.66 50.36 -46 49 C-45.34 49 -44.68 49 -44 49 C-43.87625 48.0925 -43.7525 47.185 -43.625 46.25 C-42.68421053 41.35789474 -42.68421053 41.35789474 -41 39 C-39.33333333 38.33333333 -37.66666667 37.66666667 -36 37 C-35.31513275 35.67592331 -34.65129797 34.34090759 -34 33 C-32.51664049 31.74236911 -31.0303334 30.48726978 -29.5078125 29.27734375 C-27.3300601 27.43246024 -25.7266376 25.26621185 -24 23 C-21.28794179 19.6533655 -18.70189903 16.55498993 -15.3125 13.875 C-12.85831493 12.10571349 -12.85831493 12.10571349 -11.4375 9.375 C-9.81567569 6.69546418 -8.70621897 6.35310948 -6 5 C-5.34786708 2.97536745 -5.34786708 2.97536745 -5 1 C-3 0 -3 0 0 0 Z " fill="#65149E" transform="translate(237,109)"/>
<path d="M0 0 C3.11547663 2.81876457 5.52558183 5.98372278 6.5 10.125 C6.85170794 12.09678829 6.85170794 12.09678829 8.4375 13.375 C10.60490839 15.62910472 11.11752486 18.0374049 12 21 C12.86076312 23.03943262 12.86076312 23.03943262 14.4375 24.25 C16.5335768 26.59760601 17.10960702 29.01082356 18 32 C18.8652255 34.01317224 18.8652255 34.01317224 20.3125 35.25 C23.07460523 38.11440543 25.60275765 41.26206471 26.5 45.1875 C27.21221658 47.76928509 28.87338312 48.49078802 31 50 C31 50.66 31 51.32 31 52 C19.18067572 47.18471974 13.26063522 31.07687336 7.6875 20.625 C7.06810547 19.47644531 6.44871094 18.32789062 5.81054688 17.14453125 C0.16293284 6.60967683 0.16293284 6.60967683 -1 3 C-0.67 2.01 -0.34 1.02 0 0 Z " fill="#EA9D6A" transform="translate(140,35)"/>
<path d="M0 0 C0.99 0 1.98 0 3 0 C2.855625 0.928125 2.71125 1.85625 2.5625 2.8125 C1.64705878 9.2728995 0.9124185 15.78142236 1 22.3125 C1 25.68442502 0.65967346 28.70163268 0 32 C0.66 32 1.32 32 2 32 C2.2475 31.484375 2.495 30.96875 2.75 30.4375 C4.39581616 27.22815849 6.1976096 24.12414336 8 21 C8.66 21 9.32 21 10 21 C10.37125 19.824375 10.37125 19.824375 10.75 18.625 C12.15389099 15.67682892 13.00675737 15.0975223 16 14 C13.38671911 18.83940906 10.53281227 22.76062528 7 27 C6.33351201 28.1970647 5.68764613 29.40583535 5.0625 30.625 C2.6816305 34.52096827 0.89139005 35.78898292 -3 38 C-4.25998917 34.27662227 -3.87531063 31.06252714 -3.4765625 27.1875 C-3.41093109 26.53676514 -3.34529968 25.88603027 -3.27767944 25.21557617 C-3.13793333 23.84357581 -2.99484748 22.47191202 -2.84863281 21.10058594 C-2.6258382 19.00787318 -2.41360526 16.91429602 -2.203125 14.8203125 C-1.05955751 3.70098962 -1.05955751 3.70098962 0 0 Z M-3 34 C-2 36 -2 36 -2 36 Z " fill="#641FA6" transform="translate(61,193)"/>
<path d="M0 0 C2.475 0.99 2.475 0.99 5 2 C5 4.64 5 7.28 5 10 C5.598125 10.020625 6.19625 10.04125 6.8125 10.0625 C9 11 9 11 10.625 14.4375 C11.07875 15.613125 11.5325 16.78875 12 18 C12.66 18.66 13.32 19.32 14 20 C13.625 22.125 13.625 22.125 13 24 C8.57479891 21.40259936 6.69108572 19.81309013 5 15 C4.01 14.67 3.02 14.34 2 14 C-0.24803873 9.87859566 -0.61590515 5.60913817 -1 1 C-0.67 0.67 -0.34 0.34 0 0 Z " fill="#BD6231" transform="translate(19,100)"/>
<path d="M0 0 C17.01776133 3.24654875 34.01728046 6.57482116 51 10 C50.34 10.66 49.68 11.32 49 12 C46.52124023 11.86328125 46.52124023 11.86328125 43.37109375 11.3125 C41.61514893 11.01085937 41.61514893 11.01085937 39.82373047 10.703125 C38.56189941 10.47109375 37.30006836 10.2390625 36 10 C34.72141113 9.76796875 33.44282227 9.5359375 32.12548828 9.296875 C28.78133925 8.68195421 25.44209535 8.04369596 22.10424805 7.39550781 C20.04109311 6.99585326 17.97666962 6.60325992 15.91210938 6.2109375 C14.57804324 5.95354841 13.24405582 5.69575092 11.91015625 5.4375 C10.13330444 5.09525391 10.13330444 5.09525391 8.32055664 4.74609375 C5.11939476 4.02682673 2.09046707 3.09528104 -1 2 C-0.67 1.34 -0.34 0.68 0 0 Z " fill="#E475B0" transform="translate(173,86)"/>
<path d="M0 0 C1 3 1 3 0.25 4.83984375 C-0.1625 5.53207031 -0.575 6.22429688 -1 6.9375 C-1.69802734 8.12279297 -1.69802734 8.12279297 -2.41015625 9.33203125 C-2.93480469 10.21246094 -3.45945312 11.09289062 -4 12 C-4.55558594 12.99386719 -5.11117187 13.98773438 -5.68359375 15.01171875 C-9.00193775 20.90196411 -12.38892655 26.05153094 -17 31 C-17.99 30.34 -18.98 29.68 -20 29 C-19.38125 28.443125 -18.7625 27.88625 -18.125 27.3125 C-15.88269089 24.87234008 -15.1667344 23.0626778 -14 20 C-12 16.6875 -12 16.6875 -10 14 C-9.34 14 -8.68 14 -8 14 C-7.896875 13.113125 -7.79375 12.22625 -7.6875 11.3125 C-6.98284093 7.9173245 -6.0445434 5.78057902 -4 3 C-3.34 3 -2.68 3 -2 3 C-1.34 2.01 -0.68 1.02 0 0 Z " fill="#DC8E42" transform="translate(106,55)"/>
<path d="M0 0 C1.48206495 0.254496 2.96068615 0.52911762 4.4375 0.8125 C5.67306641 1.03873047 5.67306641 1.03873047 6.93359375 1.26953125 C7.61550781 1.51058594 8.29742187 1.75164062 9 2 C10.27596315 5.82788944 9.62344752 7.36656983 8 11 C6 12.1875 6 12.1875 4 13 C3.01 14.485 3.01 14.485 2 16 C1.67 15.01 1.34 14.02 1 13 C-0.093125 13.165 -1.18625 13.33 -2.3125 13.5 C-6 14 -6 14 -9 14 C-6.72984147 10.59476221 -5.79140014 10.31414983 -2.0625 9 C1.36478557 7.78858831 3.60991943 6.77659525 6 4 C3.03 3.505 3.03 3.505 0 3 C0 2.01 0 1.02 0 0 Z " fill="#A943B7" transform="translate(228,98)"/>
<path d="M0 0 C3 0 3 0 5.5625 2.1875 C9.93713245 7.23515283 10.37588877 11.65146829 10.26171875 18.1328125 C9.88036564 22.3106212 8.90338212 26.24562242 7 30 C6.34 30.33 5.68 30.66 5 31 C5.0721875 30.32195312 5.144375 29.64390625 5.21875 28.9453125 C5.85113709 22.60387527 6.12438222 16.37113353 6 10 C5.34 10 4.68 10 4 10 C4 8.02 4 6.04 4 4 C2.68 3.34 1.36 2.68 0 2 C0 1.34 0 0.68 0 0 Z " fill="#9F297C" transform="translate(57,152)"/>
<path d="M0 0 C-7.62053711 3.44408409 -15.17047631 5.30260748 -23.375 6.8125 C-24.53644531 7.04130859 -25.69789062 7.27011719 -26.89453125 7.50585938 C-36.23048396 9.27051633 -36.23048396 9.27051633 -40 8 C-36.6196829 5.74645527 -34.22544834 5.29030064 -30.25 4.52734375 C-29.59547852 4.39936905 -28.94095703 4.27139435 -28.26660156 4.13954163 C-26.17891392 3.7324668 -24.08960715 3.3345927 -22 2.9375 C-19.91075115 2.53518493 -17.82189435 2.13095206 -15.73339844 1.7247467 C-13.8385954 1.35703678 -11.94275761 0.99467094 -10.046875 0.63256836 C-2.80580287 -0.87076641 -2.80580287 -0.87076641 0 0 Z " fill="#EAAC74" transform="translate(88,86)"/>
<path d="M0 0 C0.66 0.66 1.32 1.32 2 2 C-0.66480272 3.27486585 -3.33171716 4.54495466 -6 5.8125 C-7.11568359 6.34713867 -7.11568359 6.34713867 -8.25390625 6.89257812 C-21.5774205 13.20676531 -21.5774205 13.20676531 -28.5 13.6875 C-29.78390625 13.78611328 -29.78390625 13.78611328 -31.09375 13.88671875 C-31.7228125 13.92410156 -32.351875 13.96148437 -33 14 C-32.67 13.01 -32.34 12.02 -32 11 C-28.6483731 9.48378783 -26.25128194 8.99086247 -22.5625 9.125 C-18.84746803 8.994648 -17.05712346 8.12469135 -13.96875 6.15234375 C-10.84957404 4.3266356 -7.50317746 3.12602993 -4.13671875 1.83203125 C-1.99454204 1.03568111 -1.99454204 1.03568111 0 0 Z " fill="#390D82" transform="translate(93,217)"/>
<path d="M0 0 C3.69909473 0.60541175 6.71354402 1.65257655 10.08203125 3.28515625 C11.01337891 3.73310547 11.94472656 4.18105469 12.90429688 4.64257812 C13.86400391 5.11115234 14.82371094 5.57972656 15.8125 6.0625 C16.79154297 6.53494141 17.77058594 7.00738281 18.77929688 7.49414062 C21.18870167 8.65770684 23.59544007 9.82646296 26 11 C25.34 11.66 24.68 12.32 24 13 C20.19090105 12.67582137 18.21627837 12.14418558 15 10 C15 9.34 15 8.68 15 8 C13.7315625 7.5978125 13.7315625 7.5978125 12.4375 7.1875 C8.86145933 5.9521405 5.46139092 4.523012 2 3 C2 2.34 2 1.68 2 1 C1.34 0.67 0.68 0.34 0 0 Z " fill="#200879" transform="translate(137,206)"/>
<path d="M0 0 C0.99 0 1.98 0 3 0 C2.855625 0.928125 2.71125 1.85625 2.5625 2.8125 C1.63423717 9.36338339 0.89394896 15.94085205 1.0625 22.5625 C1 26 1 26 -1 28 C-2.65207856 18.29403848 -1.83097534 9.66166454 0 0 Z " fill="#79269E" transform="translate(61,193)"/>
<path d="M0 0 C0.639375 0.33 1.27875 0.66 1.9375 1 C1.9375 1.66 1.9375 2.32 1.9375 3 C2.54078125 3.19335938 3.1440625 3.38671875 3.765625 3.5859375 C4.56484375 3.84632813 5.3640625 4.10671875 6.1875 4.375 C6.97640625 4.63023437 7.7653125 4.88546875 8.578125 5.1484375 C10.80377958 5.95173667 12.84681672 6.89711662 14.9375 8 C14.6075 8.66 14.2775 9.32 13.9375 10 C12.81730469 9.50628906 11.69710937 9.01257813 10.54296875 8.50390625 C9.07034305 7.85670132 7.59768511 7.20956973 6.125 6.5625 C5.38701172 6.23701172 4.64902344 5.91152344 3.88867188 5.57617188 C3.17646484 5.26357422 2.46425781 4.95097656 1.73046875 4.62890625 C1.0758667 4.34088135 0.42126465 4.05285645 -0.25317383 3.75610352 C-3.94492843 2.21334761 -6.7774125 1.89076368 -10.75 1.9375 C-11.74386719 1.94652344 -12.73773438 1.95554688 -13.76171875 1.96484375 C-14.52097656 1.97644531 -15.28023438 1.98804688 -16.0625 2 C-13.53553065 -3.05393871 -4.520042 -1.47593208 0 0 Z " fill="#19065F" transform="translate(137.0625,206)"/>
<path d="M0 0 C-0.75 2.375 -0.75 2.375 -2 5 C-3.32520503 5.68268138 -4.65812182 6.3507041 -6 7 C-6.12375 7.61875 -6.2475 8.2375 -6.375 8.875 C-7.37880487 12.28793655 -10.05433612 13.23260167 -13 15 C-13.99 15.66 -14.98 16.32 -16 17 C-15.625 15.0625 -15.625 15.0625 -15 13 C-14.34 12.67 -13.68 12.34 -13 12 C-12.54625 11.195625 -12.0925 10.39125 -11.625 9.5625 C-9.8570557 6.77458784 -8.83208735 6.41604368 -6 5 C-5.34786708 2.97536745 -5.34786708 2.97536745 -5 1 C-3 0 -3 0 0 0 Z " fill="#78149F" transform="translate(237,109)"/>
<path d="M0 0 C0 0.66 0 1.32 0 2 C-2.45620851 3.17133058 -4.91474917 4.33721722 -7.375 5.5 C-8.07367188 5.83386719 -8.77234375 6.16773438 -9.4921875 6.51171875 C-14.7734375 9 -14.7734375 9 -17 9 C-17.33 9.99 -17.66 10.98 -18 12 C-19.98 12 -21.96 12 -24 12 C-21.76425846 9.5230138 -19.63163521 8.1555457 -16.62109375 6.73828125 C-15.78255859 6.34189453 -14.94402344 5.94550781 -14.08007812 5.53710938 C-12.77200195 4.93092773 -12.77200195 4.93092773 -11.4375 4.3125 C-10.12362305 3.68891602 -10.12362305 3.68891602 -8.78320312 3.05273438 C-2.27170567 0 -2.27170567 0 0 0 Z " fill="#390D87" transform="translate(119,206)"/>
<path d="M0 0 C8.54092606 0.50548338 16.67377292 2.06734291 25 4 C24.34 4.66 23.68 5.32 23 6 C20.3125 5.828125 20.3125 5.828125 17 5.25 C15.26169922 4.95222656 15.26169922 4.95222656 13.48828125 4.6484375 C8.98220758 3.8108023 4.48354891 2.95136252 0 2 C0 1.34 0 0.68 0 0 Z " fill="#D966C6" transform="translate(199,92)"/>
<path d="M0 0 C3.11547663 2.81876457 5.52558183 5.98372278 6.5 10.125 C7.12136737 12.45512762 8.20595437 13.43996032 10 15 C9.67 15.66 9.34 16.32 9 17 C7.20703125 16.828125 7.20703125 16.828125 5 16 C3.26171875 13.671875 3.26171875 13.671875 1.6875 10.75 C1.15511719 9.79609375 0.62273437 8.8421875 0.07421875 7.859375 C-1.11794004 4.68606506 -0.99503411 3.18876428 0 0 Z " fill="#DE9D5B" transform="translate(140,35)"/>
<path d="M0 0 C3.5647612 1.00544547 6.12342986 2.7185823 9 5 C9.66 5.33 10.32 5.66 11 6 C10.67 6.66 10.34 7.32 10 8 C9.01 8 8.02 8 7 8 C6.566875 7.484375 6.13375 6.96875 5.6875 6.4375 C5.130625 5.963125 4.57375 5.48875 4 5 C0.85078091 5.23283149 0.85078091 5.23283149 -2 6 C-2.33 4.68 -2.66 3.36 -3 2 C-2.01 1.34 -1.02 0.68 0 0 Z " fill="#E9C378" transform="translate(127,24)"/>
<path d="M0 0 C4.07376031 1.61010527 6.76507069 4.53822271 9.75 7.625 C10.25660156 8.140625 10.76320313 8.65625 11.28515625 9.1875 C12.52803902 10.45383339 13.76465276 11.7263144 15 13 C14.67 13.99 14.34 14.98 14 16 C13.55269531 15.61328125 13.10539062 15.2265625 12.64453125 14.828125 C12.03996094 14.30734375 11.43539062 13.7865625 10.8125 13.25 C10.17699219 12.70085937 9.54148437 12.15171875 8.88671875 11.5859375 C7.34631253 10.29110329 5.74326276 9.07110726 4.125 7.875 C1.82876504 5.84891033 1.39480904 4.96106783 1 2 C0.67 1.34 0.34 0.68 0 0 Z " fill="#B64539" transform="translate(33,124)"/>
<path d="M0 0 C2.375 0.1875 2.375 0.1875 5 1 C5.72904086 2.64034193 6.38655243 4.31301918 7 6 C8.64694485 7.68615782 10.31126121 9.35570171 12 11 C12 11.66 12 12.32 12 13 C6.80744075 10.8845129 3.03114139 6.62647897 0 2 C0 1.34 0 0.68 0 0 Z " fill="#E56E85" transform="translate(159,74)"/>
<path d="M0 0 C0.66 0.33 1.32 0.66 2 1 C-3.94 8.92 -3.94 8.92 -10 17 C-10.66 16.67 -11.32 16.34 -12 16 C-11.071875 14.88625 -11.071875 14.88625 -10.125 13.75 C-8.39562719 11.51198812 -7.13893339 9.56260013 -6 7 C-5.34 7 -4.68 7 -4 7 C-3.71125 6.21625 -3.4225 5.4325 -3.125 4.625 C-2 2 -2 2 0 0 Z " fill="#732DA4" transform="translate(75,207)"/>
<path d="M0 0 C2.475 0.99 2.475 0.99 5 2 C5 4.64 5 7.28 5 10 C3.68 9.67 2.36 9.34 1 9 C0.63877119 7.68942607 0.28619689 6.37646376 -0.0625 5.0625 C-0.35833984 3.96615234 -0.35833984 3.96615234 -0.66015625 2.84765625 C-0.77230469 2.23792969 -0.88445313 1.62820312 -1 1 C-0.67 0.67 -0.34 0.34 0 0 Z " fill="#CA803F" transform="translate(19,100)"/>
<path d="M0 0 C1.17755859 0.36158203 1.17755859 0.36158203 2.37890625 0.73046875 C4.88043474 2.0453139 5.44379727 3.21813017 6.4375 5.8125 C4.9215625 5.3484375 4.9215625 5.3484375 3.375 4.875 C-0.2356369 3.83602081 -3.83124647 3.26938819 -7.5625 2.8125 C-7.5625 1.8225 -7.5625 0.8325 -7.5625 -0.1875 C-4.18672775 -1.31275742 -3.28391708 -1.06578528 0 0 Z " fill="#DEA25A" transform="translate(30.5625,99.1875)"/>
<path d="M0 0 C0 0.33 0 0.66 0 1 C-2.58157368 1.53132389 -5.16461756 2.05034379 -7.75 2.5625 C-8.84441406 2.78969727 -8.84441406 2.78969727 -9.9609375 3.02148438 C-13.66557073 3.74557178 -16.39322322 4.09817231 -20 3 C-14.00424316 -0.99717123 -6.96065698 -0.1114696 0 0 Z " fill="#ECB67B" transform="translate(68,91)"/>
<path d="M0 0 C0.33 0.99 0.66 1.98 1 3 C0.07421875 4.82421875 0.07421875 4.82421875 -1.3125 6.6875 C-1.76238281 7.31011719 -2.21226563 7.93273438 -2.67578125 8.57421875 C-3.11277344 9.04472656 -3.54976563 9.51523437 -4 10 C-4.66 10 -5.32 10 -6 10 C-6.75 8.25 -6.75 8.25 -7 6 C-4.88351863 3.4299869 -2.77845583 1.85230389 0 0 Z " fill="#DEA84C" transform="translate(123,27)"/>
<path d="M0 0 C1.98 0 3.96 0 6 0 C6 0.66 6 1.32 6 2 C6.99 2.33 7.98 2.66 9 3 C9.33 2.34 9.66 1.68 10 1 C11.32 1 12.64 1 14 1 C13.67 2.32 13.34 3.64 13 5 C10.36 5 7.72 5 5 5 C5 4.01 5 3.02 5 2 C3.35 1.67 1.7 1.34 0 1 C0 0.67 0 0.34 0 0 Z " fill="#1A07AD" transform="translate(185,226)"/>
<path d="M0 0 C0.6875 1.8125 0.6875 1.8125 1 4 C-0.52301613 5.9581636 -1.78226023 6.89113011 -4 8 C-4.66 8.99 -5.32 9.98 -6 11 C-6.33 9.35 -6.66 7.7 -7 6 C-6.34 6 -5.68 6 -5 6 C-4.67 5.01 -4.34 4.02 -4 3 C-1.9375 2.3125 -1.9375 2.3125 0 2 C0 1.34 0 0.68 0 0 Z " fill="#9A2CB0" transform="translate(236,103)"/>
<path d="M0 0 C2.475 0.495 2.475 0.495 5 1 C5.103125 1.598125 5.20625 2.19625 5.3125 2.8125 C6.08876455 5.28243264 7.07088921 6.32251235 9 8 C8.67 8.66 8.34 9.32 8 10 C6.140625 9.78515625 6.140625 9.78515625 4 9 C2.734375 6.93359375 2.734375 6.93359375 1.75 4.4375 C1.41484375 3.61121094 1.0796875 2.78492187 0.734375 1.93359375 C0.49203125 1.29550781 0.2496875 0.65742187 0 0 Z " fill="#EC8376" transform="translate(153,64)"/>
<path d="M0 0 C3 0 3 0 5.6875 2.3125 C8 5 8 5 8 8 C7.34 8 6.68 8 6 8 C5.34 8.66 4.68 9.32 4 10 C4 8.02 4 6.04 4 4 C2.68 3.34 1.36 2.68 0 2 C0 1.34 0 0.68 0 0 Z " fill="#9C235E" transform="translate(57,152)"/>
<path d="M0 0 C5.44567686 1.02862785 10.11817117 2.24614784 15 5 C15 5.66 15 6.32 15 7 C13.68 7 12.36 7 11 7 C11 6.34 11 5.68 11 5 C10.37351563 4.80664062 9.74703125 4.61328125 9.1015625 4.4140625 C8.28429687 4.15367187 7.46703125 3.89328125 6.625 3.625 C5.81289062 3.36976563 5.00078125 3.11453125 4.1640625 2.8515625 C2 2 2 2 0 0 Z " fill="#15078F" transform="translate(175,223)"/>
<path d="M0 0 C0.99 0 1.98 0 3 0 C2.69381595 3.67420866 2.24228216 4.78135513 -0.5625 7.3125 C-1.366875 7.869375 -2.17125 8.42625 -3 9 C-3.66 8.34 -4.32 7.68 -5 7 C-4.0409375 6.1028125 -4.0409375 6.1028125 -3.0625 5.1875 C-0.79689611 3.09189663 -0.79689611 3.09189663 0 0 Z " fill="#DF9057" transform="translate(91,77)"/>
<path d="M0 0 C2.97 0.99 5.94 1.98 9 3 C8.34 3.66 7.68 4.32 7 5 C3.875 4.625 3.875 4.625 1 4 C0.67 2.68 0.34 1.36 0 0 Z " fill="#170780" transform="translate(154,214)"/>
<path d="M0 0 C4.16138263 -0.08159574 7.9472484 0.01751476 12 1 C12 1.66 12 2.32 12 3 C10.18674449 2.88648483 8.37436643 2.75887039 6.5625 2.625 C5.04849609 2.52058594 5.04849609 2.52058594 3.50390625 2.4140625 C2.67761719 2.27742188 1.85132813 2.14078125 1 2 C0.67 1.34 0.34 0.68 0 0 Z " fill="#DE72BA" transform="translate(187,90)"/>
<path d="M0 0 C0.99 0.99 1.98 1.98 3 3 C1.75 5.5 1.75 5.5 0 8 C-1.32 8 -2.64 8 -4 8 C-2.87548273 5.0280615 -1.77706209 2.66559313 0 0 Z " fill="#EB954A" transform="translate(115,35)"/>
<path d="M0 0 C0.99 0 1.98 0 3 0 C2.44687265 4.02992782 1.8441938 8.02022924 1 12 C0.67 12 0.34 12 0 12 C-1.28571429 3.42857143 -1.28571429 3.42857143 0 0 Z " fill="#892696" transform="translate(61,193)"/>
<path d="M0 0 C0.66 0.66 1.32 1.32 2 2 C-0.5654594 4.5654594 -2.47686668 4.54046087 -6 5 C-5.67 4.01 -5.34 3.02 -5 2 C-2.4375 0.8125 -2.4375 0.8125 0 0 Z " fill="#4C1591" transform="translate(66,226)"/>
<path d="M0 0 C4.455 0.99 4.455 0.99 9 2 C8.67 2.99 8.34 3.98 8 5 C5.36 4.01 2.72 3.02 0 2 C0 1.34 0 0.68 0 0 Z " fill="#C17339" transform="translate(19,109)"/>
<path d="M0 0 C4.455 0.99 4.455 0.99 9 2 C9 2.99 9 3.98 9 5 C5.97580475 4.41196203 2.98241547 3.77321882 0 3 C0 2.01 0 1.02 0 0 Z " fill="#C844CC" transform="translate(228,98)"/>
<path d="M0 0 C-0.66 0 -1.32 0 -2 0 C-2.33 0.99 -2.66 1.98 -3 3 C-4.98 3 -6.96 3 -9 3 C-5.83583464 -0.30799106 -4.50236011 -1.35070803 0 0 Z " fill="#300B76" transform="translate(104,215)"/>
<path d="M0 0 C3.16115776 1.36983503 3.9927092 1.9890638 6 5 C5.01 5.66 4.02 6.32 3 7 C1.5 5.75 1.5 5.75 0 4 C0 2.68 0 1.36 0 0 Z " fill="#AC273E" transform="translate(51,143)"/>
<path d="M0 0 C2.34058637 2.12780579 3.70700306 4.11562221 5 7 C3.68 7.33 2.36 7.66 1 8 C-1.125 3.375 -1.125 3.375 0 0 Z " fill="#F4BF54" transform="translate(140,35)"/>
<path d="M0 0 C2.97 0.99 5.94 1.98 9 3 C8.67 3.66 8.34 4.32 8 5 C2.25 3.125 2.25 3.125 0 2 C0 1.34 0 0.68 0 0 Z " fill="#150781" transform="translate(163,218)"/>
<path d="M0 0 C1 3 1 3 -0.3125 5.6875 C-0.869375 6.450625 -1.42625 7.21375 -2 8 C-2.66 8 -3.32 8 -4 8 C-4 6.35 -4 4.7 -4 3 C-3.34 3 -2.68 3 -2 3 C-1.34 2.01 -0.68 1.02 0 0 Z " fill="#E0974C" transform="translate(106,55)"/>
<path d="M0 0 C2.475 0.99 2.475 0.99 5 2 C4.67 2.99 4.34 3.98 4 5 C3.34 4.67 2.68 4.34 2 4 C1.67 4.66 1.34 5.32 1 6 C0.34 4.35 -0.32 2.7 -1 1 C-0.67 0.67 -0.34 0.34 0 0 Z " fill="#D58C3C" transform="translate(19,100)"/>
<path d="M0 0 C0.66 0.33 1.32 0.66 2 1 C0.02 3.97 0.02 3.97 -2 7 C-2.99 6.34 -3.98 5.68 -5 5 C-4 2 -4 2 -2.0625 0.75 C-1.381875 0.5025 -0.70125 0.255 0 0 Z " fill="#D78A4A" transform="translate(97,72)"/>
<path d="M0 0 C0.33 0 0.66 0 1 0 C1 3.96 1 7.92 1 12 C0.67 12 0.34 12 0 12 C0 8.04 0 4.08 0 0 Z " fill="#7100C2" transform="translate(56,215)"/>
<path d="M0 0 C0.33 0 0.66 0 1 0 C1 3.96 1 7.92 1 12 C0.67 12 0.34 12 0 12 C0 8.04 0 4.08 0 0 Z " fill="#1C00D8" transform="translate(199,215)"/>
<path d="M0 0 C0.33 0 0.66 0 1 0 C1 3.3 1 6.6 1 10 C0.67 10 0.34 10 0 10 C0 6.7 0 3.4 0 0 Z " fill="#761FB4" transform="translate(193,162)"/>
<path d="M0 0 C0.33 0 0.66 0 1 0 C1 3.3 1 6.6 1 10 C0.67 10 0.34 10 0 10 C0 6.7 0 3.4 0 0 Z " fill="#A72C76" transform="translate(62,162)"/>
<path d="M0 0 C0.33 0 0.66 0 1 0 C1 2.97 1 5.94 1 9 C0.67 9 0.34 9 0 9 C0 6.03 0 3.06 0 0 Z " fill="#3600D2" transform="translate(198,205)"/>
<path d="M0 0 C0.33 0 0.66 0 1 0 C1 2.97 1 5.94 1 9 C0.67 9 0.34 9 0 9 C0 6.03 0 3.06 0 0 Z " fill="#88158F" transform="translate(57,205)"/>
<path d="M0 0 C2.64 0 5.28 0 8 0 C8 0.33 8 0.66 8 1 C5.36 1 2.72 1 0 1 C0 0.67 0 0.34 0 0 Z " fill="#00004F" transform="translate(124,208)"/>
<path d="M0 0 C0.33 0 0.66 0 1 0 C1 2.64 1 5.28 1 8 C0.67 8 0.34 8 0 8 C0 5.36 0 2.72 0 0 Z " fill="#2C00C1" transform="translate(197,197)"/>
<path d="M0 0 C0.33 0 0.66 0 1 0 C1 2.64 1 5.28 1 8 C0.67 8 0.34 8 0 8 C0 5.36 0 2.72 0 0 Z " fill="#740F89" transform="translate(58,197)"/>
<path d="M0 0 C0.33 0 0.66 0 1 0 C1 2.64 1 5.28 1 8 C0.67 8 0.34 8 0 8 C0 5.36 0 2.72 0 0 Z " fill="#6F0F6F" transform="translate(59,189)"/>
<path d="M0 0 C0.33 0 0.66 0 1 0 C1 2.64 1 5.28 1 8 C0.67 8 0.34 8 0 8 C0 5.36 0 2.72 0 0 Z " fill="#3200BC" transform="translate(196,189)"/>
<path d="M0 0 C0.33 0 0.66 0 1 0 C1 2.64 1 5.28 1 8 C0.67 8 0.34 8 0 8 C0 5.36 0 2.72 0 0 Z " fill="#990F99" transform="translate(60,181)"/>
<path d="M0 0 C0.33 0 0.66 0 1 0 C1 2.64 1 5.28 1 8 C0.67 8 0.34 8 0 8 C0 5.36 0 2.72 0 0 Z " fill="#3400C4" transform="translate(195,181)"/>
<path d="M0 0 C0.33 0 0.66 0 1 0 C1 2.64 1 5.28 1 8 C0.67 8 0.34 8 0 8 C0 5.36 0 2.72 0 0 Z " fill="#5100BC" transform="translate(194,173)"/>
<path d="M0 0 C0.33 0 0.66 0 1 0 C1 2.64 1 5.28 1 8 C0.67 8 0.34 8 0 8 C0 5.36 0 2.72 0 0 Z " fill="#A41774" transform="translate(61,173)"/>
<path d="M0 0 C2.31 0 4.62 0 7 0 C7 0.33 7 0.66 7 1 C4.69 1 2.38 1 0 1 C0 0.67 0 0.34 0 0 Z " fill="#00003C" transform="translate(188,233)"/>
<path d="M0 0 C2.31 0 4.62 0 7 0 C7 0.33 7 0.66 7 1 C4.69 1 2.38 1 0 1 C0 0.67 0 0.34 0 0 Z " fill="#1E003C" transform="translate(61,233)"/>
<path d="M0 0 C1.98 0 3.96 0 6 0 C6 0.33 6 0.66 6 1 C4.02 1 2.04 1 0 1 C0 0.67 0 0.34 0 0 Z " fill="#8A547B" transform="translate(199,90)"/>
<path d="M0 0 C1.98 0 3.96 0 6 0 C6 0.33 6 0.66 6 1 C4.02 1 2.04 1 0 1 C0 0.67 0 0.34 0 0 Z " fill="#FF6D54" transform="translate(51,90)"/>
<path d="M0 0 C1.65 0 3.3 0 5 0 C5 0.33 5 0.66 5 1 C3.35 1 1.7 1 0 1 C0 0.67 0 0.34 0 0 Z " fill="#F25DF2" transform="translate(210,92)"/>
<path d="M0 0 C1.65 0 3.3 0 5 0 C5 0.33 5 0.66 5 1 C3.35 1 1.7 1 0 1 C0 0.67 0 0.34 0 0 Z " fill="#FFC76E" transform="translate(41,92)"/>
<path d="M0 0 C1.65 0 3.3 0 5 0 C5 0.33 5 0.66 5 1 C3.35 1 1.7 1 0 1 C0 0.67 0 0.34 0 0 Z " fill="#E154C7" transform="translate(205,91)"/>
<path d="M0 0 C1.65 0 3.3 0 5 0 C5 0.33 5 0.66 5 1 C3.35 1 1.7 1 0 1 C0 0.67 0 0.34 0 0 Z " fill="#FFB654" transform="translate(46,91)"/>
<path d="M0 0 C1.65 0 3.3 0 5 0 C5 0.33 5 0.66 5 1 C3.35 1 1.7 1 0 1 C0 0.67 0 0.34 0 0 Z " fill="#D490BA" transform="translate(194,89)"/>
<path d="M0 0 C1.65 0 3.3 0 5 0 C5 0.33 5 0.66 5 1 C3.35 1 1.7 1 0 1 C0 0.67 0 0.34 0 0 Z " fill="#E1BA90" transform="translate(57,89)"/>
<path d="M0 0 C1.65 0 3.3 0 5 0 C5 0.33 5 0.66 5 1 C3.35 1 1.7 1 0 1 C0 0.67 0 0.34 0 0 Z " fill="#E154B6" transform="translate(189,88)"/>
<path d="M0 0 C1.65 0 3.3 0 5 0 C5 0.33 5 0.66 5 1 C3.35 1 1.7 1 0 1 C0 0.67 0 0.34 0 0 Z " fill="#FFB665" transform="translate(62,88)"/>
<path d="M0 0 C1.65 0 3.3 0 5 0 C5 0.33 5 0.66 5 1 C3.35 1 1.7 1 0 1 C0 0.67 0 0.34 0 0 Z " fill="#D85483" transform="translate(184,87)"/>
<path d="M0 0 C1.65 0 3.3 0 5 0 C5 0.33 5 0.66 5 1 C3.35 1 1.7 1 0 1 C0 0.67 0 0.34 0 0 Z " fill="#FF8365" transform="translate(67,87)"/>
<path d="M0 0 C1.65 0 3.3 0 5 0 C5 0.33 5 0.66 5 1 C3.35 1 1.7 1 0 1 C0 0.67 0 0.34 0 0 Z " fill="#F25D94" transform="translate(179,86)"/>
<path d="M0 0 C1.65 0 3.3 0 5 0 C5 0.33 5 0.66 5 1 C3.35 1 1.7 1 0 1 C0 0.67 0 0.34 0 0 Z " fill="#FF946E" transform="translate(72,86)"/>
<path d="M0 0 C1 4 1 4 1 4 Z " fill="#BF3FDF" transform="translate(238,103)"/>
<path d="M0 0 C1 4 1 4 1 4 Z " fill="#DFBF3F" transform="translate(17,103)"/>
<path d="M0 0 C4 1 4 1 4 1 Z " fill="#9F3F9F" transform="translate(220,94)"/>
<path d="M0 0 C4 1 4 1 4 1 Z " fill="#DF7F5F" transform="translate(32,94)"/>
<path d="M0 0 C4 1 4 1 4 1 Z " fill="#B96AA4" transform="translate(215,93)"/>
<path d="M0 0 C4 1 4 1 4 1 Z " fill="#C9A46A" transform="translate(37,93)"/>
<path d="M0 0 C4 1 4 1 4 1 Z " fill="#D954B9" transform="translate(175,85)"/>
<path d="M0 0 C4 1 4 1 4 1 Z " fill="#E9B954" transform="translate(77,85)"/>
<path d="M0 0 C3 1 3 1 3 1 Z " fill="#000094" transform="translate(185,232)"/>
<path d="M0 0 C3 1 3 1 3 1 Z " fill="#000094" transform="translate(68,232)"/>
<path d="M0 0 C3 1 3 1 3 1 Z " fill="#0000D4" transform="translate(182,231)"/>
<path d="M0 0 C3 1 3 1 3 1 Z " fill="#15006A" transform="translate(71,231)"/>
<path d="M0 0 C3 1 3 1 3 1 Z " fill="#000038" transform="translate(179,230)"/>
<path d="M0 0 C3 1 3 1 3 1 Z " fill="#1C0038" transform="translate(74,230)"/>
<path d="M0 0 C3 1 3 1 3 1 Z " fill="#00001C" transform="translate(170,226)"/>
<path d="M0 0 C3 1 3 1 3 1 Z " fill="#000071" transform="translate(83,226)"/>
<path d="M0 0 C3 1 3 1 3 1 Z " fill="#000071" transform="translate(140,212)"/>
<path d="M0 0 C3 1 3 1 3 1 Z " fill="#000071" transform="translate(113,212)"/>
<path d="M0 0 C3 1 3 1 3 1 Z " fill="#000038" transform="translate(135,210)"/>
<path d="M0 0 C3 1 3 1 3 1 Z " fill="#1C0038" transform="translate(118,210)"/>
<path d="M0 0 C3 1 3 1 3 1 Z " fill="#000031" transform="translate(132,209)"/>
<path d="M0 0 C3 1 3 1 3 1 Z " fill="#150031" transform="translate(121,209)"/>
<path d="M0 0 C3 1 3 1 3 1 Z " fill="#E93FE9" transform="translate(227,96)"/>
<path d="M0 0 C3 1 3 1 3 1 Z " fill="#E9E954" transform="translate(26,96)"/>
<path d="M0 0 C3 1 3 1 3 1 Z " fill="#E95BBF" transform="translate(224,95)"/>
<path d="M0 0 C3 1 3 1 3 1 Z " fill="#E9A25B" transform="translate(29,95)"/>
<path d="M0 0 C3 1 3 1 3 1 Z " fill="#E2AAC6" transform="translate(172,84)"/>
<path d="M0 0 C3 1 3 1 3 1 Z " fill="#E2C6AA" transform="translate(81,84)"/>
<path d="M0 0 C0.99 0.495 0.99 0.495 2 1 C1.01 1.495 1.01 1.495 0 2 C0 1.34 0 0.68 0 0 Z " fill="#FF7831" transform="translate(121,26)"/>
<path d="M0 0 C0.66 0 1.32 0 2 0 C1.67 0.66 1.34 1.32 1 2 C0.67 1.34 0.34 0.68 0 0 Z " fill="#FFCD46" transform="translate(133,26)"/>
<path d="M0 0 C2 1 2 1 2 1 Z " fill="#0000BF" transform="translate(177,229)"/>
<path d="M0 0 C2 1 2 1 2 1 Z " fill="#1F001F" transform="translate(77,229)"/>
<path d="M0 0 C2 1 2 1 2 1 Z " fill="#000094" transform="translate(175,228)"/>
<path d="M0 0 C2 1 2 1 2 1 Z " fill="#2A006A" transform="translate(79,228)"/>
<path d="M0 0 C2 1 2 1 2 1 Z " fill="#00006A" transform="translate(173,227)"/>
<path d="M0 0 C2 1 2 1 2 1 Z " fill="#00006A" transform="translate(81,227)"/>
<path d="M0 0 C2 1 2 1 2 1 Z " fill="#00003F" transform="translate(168,225)"/>
<path d="M0 0 C2 1 2 1 2 1 Z " fill="#1F001F" transform="translate(86,225)"/>
<path d="M0 0 C2 1 2 1 2 1 Z " fill="#0000BF" transform="translate(166,224)"/>
<path d="M0 0 C2 1 2 1 2 1 Z " fill="#1F003F" transform="translate(88,224)"/>
<path d="M0 0 C2 1 2 1 2 1 Z " fill="#000094" transform="translate(164,223)"/>
<path d="M0 0 C2 1 2 1 2 1 Z " fill="#2A0094" transform="translate(90,223)"/>
<path d="M0 0 C2 1 2 1 2 1 Z " fill="#00006A" transform="translate(162,222)"/>
<path d="M0 0 C2 1 2 1 2 1 Z " fill="#2A006A" transform="translate(92,222)"/>
<path d="M0 0 C2 1 2 1 2 1 Z " fill="#00007F" transform="translate(160,221)"/>
<path d="M0 0 C2 1 2 1 2 1 Z " fill="#3F007F" transform="translate(94,221)"/>
<path d="M0 0 C2 1 2 1 2 1 Z " fill="#00006A" transform="translate(158,220)"/>
<path d="M0 0 C2 1 2 1 2 1 Z " fill="#00006A" transform="translate(96,220)"/>
<path d="M0 0 C2 1 2 1 2 1 Z " fill="#0000AA" transform="translate(156,219)"/>
<path d="M0 0 C2 1 2 1 2 1 Z " fill="#0000AA" transform="translate(98,219)"/>
<path d="M0 0 C2 1 2 1 2 1 Z " fill="#000055" transform="translate(153,218)"/>
<path d="M0 0 C2 1 2 1 2 1 Z " fill="#00002A" transform="translate(101,218)"/>
<path d="M0 0 C2 1 2 1 2 1 Z " fill="#000055" transform="translate(151,217)"/>
<path d="M0 0 C2 1 2 1 2 1 Z " fill="#2A002A" transform="translate(103,217)"/>
<path d="M0 0 C2 1 2 1 2 1 Z " fill="#00003F" transform="translate(149,216)"/>
<path d="M0 0 C2 1 2 1 2 1 Z " fill="#1F003F" transform="translate(105,216)"/>
<path d="M0 0 C2 1 2 1 2 1 Z " fill="#0000BF" transform="translate(147,215)"/>
<path d="M0 0 C2 1 2 1 2 1 Z " fill="#1F00BF" transform="translate(107,215)"/>
<path d="M0 0 C2 1 2 1 2 1 Z " fill="#00006A" transform="translate(145,214)"/>
<path d="M0 0 C2 1 2 1 2 1 Z " fill="#2A0094" transform="translate(109,214)"/>
<path d="M0 0 C2 1 2 1 2 1 Z " fill="#00006A" transform="translate(143,213)"/>
<path d="M0 0 C2 1 2 1 2 1 Z " fill="#2A006A" transform="translate(111,213)"/>
<path d="M0 0 C2 1 2 1 2 1 Z " fill="#00009F" transform="translate(138,211)"/>
<path d="M0 0 C2 1 2 1 2 1 Z " fill="#1F001F" transform="translate(116,211)"/>
<path d="" fill="#5500AA" transform="translate(0,0)"/>
<path d="" fill="#AA5555" transform="translate(0,0)"/>
<path d="" fill="#5500AA" transform="translate(0,0)"/>
<path d="" fill="#AA5555" transform="translate(0,0)"/>
<path d="M0 0 C2 1 2 1 2 1 Z " fill="#BF00BF" transform="translate(234,99)"/>
<path d="M0 0 C2 1 2 1 2 1 Z " fill="#BFBF00" transform="translate(20,99)"/>
<path d="M0 0 C2 1 2 1 2 1 Z " fill="#FF2AFF" transform="translate(231,97)"/>
<path d="M0 0 C2 1 2 1 2 1 Z " fill="#FFD42A" transform="translate(23,97)"/>
<path d="M0 0 C2 1 2 1 2 1 Z " fill="#FF7F9F" transform="translate(170,83)"/>
<path d="M0 0 C2 1 2 1 2 1 Z " fill="#FF9F7F" transform="translate(84,83)"/>
<path d="M0 0 C2 1 2 1 2 1 Z " fill="#FF7F7F" transform="translate(168,82)"/>
<path d="M0 0 C2 1 2 1 2 1 Z " fill="#DF7F5F" transform="translate(86,82)"/>
<path d="" fill="#D47F55" transform="translate(0,0)"/>
<path d="" fill="#AA7F55" transform="translate(0,0)"/>
<path d="" fill="#D47F55" transform="translate(0,0)"/>
<path d="" fill="#AA7F55" transform="translate(0,0)"/>
<path d="" fill="#D4AA55" transform="translate(0,0)"/>
<path d="" fill="#AAAA55" transform="translate(0,0)"/>
<path d="M0 0 C2 1 2 1 2 1 Z " fill="#D4D4AA" transform="translate(129,23)"/>
<path d="M0 0 C2 1 2 1 2 1 Z " fill="#D4D4AA" transform="translate(125,23)"/>
<path d="M0 0 C2 1 2 1 2 1 Z " fill="#FF7F7F" transform="translate(127,22)"/>
<path d="" fill="#00007F" transform="translate(0,0)"/>
<path d="" fill="#7F007F" transform="translate(0,0)"/>
<path d="" fill="#0000FF" transform="translate(0,0)"/>
<path d="" fill="#0000FF" transform="translate(0,0)"/>
<path d="" fill="#3F007F" transform="translate(0,0)"/>
<path d="" fill="#BF3F3F" transform="translate(0,0)"/>
<path d="" fill="#5500AA" transform="translate(0,0)"/>
<path d="" fill="#AA5555" transform="translate(0,0)"/>
<path d="" fill="#660099" transform="translate(0,0)"/>
<path d="" fill="#993333" transform="translate(0,0)"/>
<path d="" fill="#660099" transform="translate(0,0)"/>
<path d="" fill="#993333" transform="translate(0,0)"/>
<path d="" fill="#7F00BF" transform="translate(0,0)"/>
<path d="" fill="#993333" transform="translate(0,0)"/>
<path d="" fill="#7F00BF" transform="translate(0,0)"/>
<path d="" fill="#BF3F3F" transform="translate(0,0)"/>
<path d="" fill="#7F00BF" transform="translate(0,0)"/>
<path d="" fill="#BF3F3F" transform="translate(0,0)"/>
<path d="" fill="#3F007F" transform="translate(0,0)"/>
<path d="" fill="#BF3F3F" transform="translate(0,0)"/>
<path d="" fill="#3F007F" transform="translate(0,0)"/>
<path d="" fill="#7F3F3F" transform="translate(0,0)"/>
<path d="" fill="#5500AA" transform="translate(0,0)"/>
<path d="" fill="#AA5555" transform="translate(0,0)"/>
<path d="" fill="#5500AA" transform="translate(0,0)"/>
<path d="" fill="#AA5555" transform="translate(0,0)"/>
<path d="" fill="#550055" transform="translate(0,0)"/>
<path d="" fill="#AA5555" transform="translate(0,0)"/>
<path d="" fill="#7F007F" transform="translate(0,0)"/>
<path d="" fill="#FF7F7F" transform="translate(0,0)"/>
<path d="" fill="#7F00BF" transform="translate(0,0)"/>
<path d="" fill="#BF3F3F" transform="translate(0,0)"/>
<path d="" fill="#660099" transform="translate(0,0)"/>
<path d="" fill="#996633" transform="translate(0,0)"/>
<path d="" fill="#7F00BF" transform="translate(0,0)"/>
<path d="" fill="#BF3F3F" transform="translate(0,0)"/>
<path d="" fill="#7F00BF" transform="translate(0,0)"/>
<path d="" fill="#BF3F3F" transform="translate(0,0)"/>
<path d="" fill="#7F007F" transform="translate(0,0)"/>
<path d="" fill="#BF3F3F" transform="translate(0,0)"/>
<path d="" fill="#5500AA" transform="translate(0,0)"/>
<path d="" fill="#AA5555" transform="translate(0,0)"/>
<path d="" fill="#7F007F" transform="translate(0,0)"/>
<path d="" fill="#BF7F3F" transform="translate(0,0)"/>
<path d="" fill="#5500AA" transform="translate(0,0)"/>
<path d="" fill="#AA5555" transform="translate(0,0)"/>
<path d="" fill="#AA55FF" transform="translate(0,0)"/>
<path d="" fill="#FFAA55" transform="translate(0,0)"/>
<path d="" fill="#CC6699" transform="translate(0,0)"/>
<path d="" fill="#CC9966" transform="translate(0,0)"/>
<path d="" fill="#CC6699" transform="translate(0,0)"/>
<path d="" fill="#CC9966" transform="translate(0,0)"/>
<path d="" fill="#FFBF7F" transform="translate(0,0)"/>
<path d="" fill="#BFBF3F" transform="translate(0,0)"/>
<path d="" fill="#FFFF7F" transform="translate(0,0)"/>
<path d="" fill="#FFFF7F" transform="translate(0,0)"/>
<path d="" fill="#FFAA55" transform="translate(0,0)"/>
<path d="" fill="#AAAA55" transform="translate(0,0)"/>
</svg>
